<?xml version="1.0" standalone="no"?><!-- Generator: Gravit.io --><svg xmlns="http://www.w3.org/2000/svg" xmlns:xlink="http://www.w3.org/1999/xlink" style="isolation:isolate" viewBox="60.75 2125.619 41 41" width="41" height="41"><g><path d=" M 101.75 2160.925 C 101.75 2164.07 99.201 2166.619 96.056 2166.619 L 66.444 2166.619 C 63.299 2166.619 60.75 2164.07 60.75 2160.925 L 60.75 2131.314 C 60.75 2128.169 63.299 2125.619 66.444 2125.619 L 96.056 2125.619 C 99.201 2125.619 101.75 2128.169 101.75 2131.314 L 101.75 2160.925 Z " fill="rgb(63,81,181)"/><path d=" M 93.058 2147.258 L 89.222 2147.258 L 89.222 2162.064 L 83.528 2162.064 L 83.528 2147.258 L 80.111 2147.258 L 80.111 2142.703 L 83.528 2142.703 L 83.528 2139.958 C 83.53 2135.963 85.189 2133.592 89.896 2133.592 L 93.778 2133.592 L 93.778 2138.147 L 91.173 2138.147 C 89.341 2138.147 89.222 2138.83 89.222 2140.109 L 89.222 2142.703 L 93.778 2142.703 L 93.058 2147.258 Z " fill="rgb(255,255,255)"/></g></svg>