<?xml version="1.0" standalone="no"?><!-- Generator: Gravit.io --><svg xmlns="http://www.w3.org/2000/svg" xmlns:xlink="http://www.w3.org/1999/xlink" style="isolation:isolate" viewBox="168.5 2125.619 41 41" width="41" height="41"><g><path d=" M 168.5 2139.286 L 168.5 2160.925 C 168.5 2164.07 171.049 2166.619 174.194 2166.619 L 203.806 2166.619 C 206.951 2166.619 209.5 2164.07 209.5 2160.925 L 209.5 2139.286 L 168.5 2139.286 Z " fill="rgb(255,204,128)"/><path d=" M 209.5 2139.286 L 209.5 2131.314 C 209.5 2128.169 206.951 2125.619 203.806 2125.619 L 174.194 2125.619 C 171.049 2125.619 168.5 2128.169 168.5 2131.314 L 168.5 2139.286 L 209.5 2139.286 Z " fill="rgb(121,85,72)"/><circle vector-effect="non-scaling-stroke" cx="189" cy="2147.2582687338495" r="9.111111111111114" fill="rgb(55,71,79)"/><path d=" M 189 2157.508 C 183.349 2157.508 178.75 2152.911 178.75 2147.258 C 178.75 2141.607 183.349 2137.008 189 2137.008 C 194.652 2137.008 199.25 2141.607 199.25 2147.258 C 199.25 2152.911 194.652 2157.508 189 2157.508 Z  M 189 2139.286 C 184.604 2139.286 181.028 2142.862 181.028 2147.258 C 181.028 2151.653 184.604 2155.23 189 2155.23 C 193.395 2155.23 196.972 2151.653 196.972 2147.258 C 196.972 2142.862 193.395 2139.286 189 2139.286 Z " fill="rgb(255,243,224)"/><circle vector-effect="non-scaling-stroke" cx="189.0000000000001" cy="2147.2582687338495" r="5.694444444444429" fill="rgb(84,110,122)"/><circle vector-effect="non-scaling-stroke" cx="186.72222222222214" cy="2144.980490956071" r="2.2777777777777715" fill="rgb(187,222,251)"/><path d=" M 170.778 2126.783 L 170.778 2139.286 L 173.056 2139.286 L 173.056 2125.734 C 172.227 2125.909 171.449 2126.267 170.778 2126.783 Z " fill="rgb(244,67,54)"/><path d=" M 174.194 2125.619 C 173.804 2125.619 173.423 2125.659 173.056 2125.734 L 173.056 2139.286 L 175.333 2139.286 L 175.333 2125.619 L 174.194 2125.619 Z " fill="rgb(255,235,59)"/><rect x="175.333" y="2125.619" width="2.278" height="13.667" transform="matrix(1,0,0,1,0,0)" fill="rgb(139,195,74)"/><rect x="177.611" y="2125.619" width="2.278" height="13.667" transform="matrix(1,0,0,1,0,0)" fill="rgb(33,150,243)"/><g><rect x="198.111" y="2129.036" width="6.833" height="6.833" transform="matrix(1,0,0,1,0,0)" fill="rgb(62,39,35)"/><path d=" M 179.889 2138.717 C 179.889 2139.66 179.124 2140.425 178.181 2140.425 L 172.486 2140.425 C 171.543 2140.425 170.778 2139.66 170.778 2138.717 C 170.778 2137.773 171.543 2137.008 172.486 2137.008 L 178.181 2137.008 C 179.124 2137.008 179.889 2137.773 179.889 2138.717 Z " fill="rgb(62,39,35)"/></g></g></svg>