<?xml version="1.0" standalone="no"?><!-- Generator: Gravit.io --><svg xmlns="http://www.w3.org/2000/svg" xmlns:xlink="http://www.w3.org/1999/xlink" style="isolation:isolate" viewBox="276.25 2125.619 41 41" width="41" height="41"><path d=" M 317.25 2130.484 C 315.751 2131.309 314.16 2131.853 312.53 2132.098 L 312.514 2132.063 C 314.243 2130.783 315.526 2128.762 316.117 2126.389 C 314.465 2127.594 312.658 2128.443 310.774 2128.901 C 308.171 2125.476 304.02 2124.631 300.658 2126.844 C 297.297 2129.057 295.565 2133.774 296.439 2138.339 C 289.674 2137.918 283.373 2133.988 279.1 2127.524 C 278.352 2129.104 277.96 2130.9 277.962 2132.728 C 277.959 2136.188 279.363 2139.42 281.703 2141.34 C 280.368 2141.287 279.063 2140.842 277.895 2140.044 L 277.895 2140.173 C 277.895 2145.099 280.717 2149.343 284.643 2150.32 C 283.404 2150.734 282.105 2150.795 280.845 2150.496 C 281.947 2154.712 285.105 2157.599 288.705 2157.683 C 285.181 2161.09 280.699 2162.631 276.25 2161.967 C 280.095 2165.01 284.571 2166.625 289.143 2166.619 C 304.616 2166.619 313.075 2150.853 313.075 2137.179 C 313.075 2136.731 313.068 2136.284 313.052 2135.839 C 314.699 2134.374 316.12 2132.561 317.25 2130.484 Z " fill="rgb(78,122,181)"/></svg>